<svg width="150" height="150" viewBox="0 0 150 150" fill="none" xmlns="http://www.w3.org/2000/svg">
<rect width="150" height="150" fill="white"/>
<path d="M59.0251 91.37C55.6125 87.7065 53.9062 83.0479 53.9062 77.3943C53.9062 71.7407 55.6125 67.1273 59.0251 63.5542C62.4376 59.9359 66.7725 58.1268 72.0296 58.1268C77.2868 58.1268 81.2988 60.2525 84.0658 64.5041V58.6695H93.75V96.5261C93.75 101.908 92.136 106.295 88.9079 109.688C85.6798 113.125 81.1374 114.844 75.2808 114.844C69.4702 114.844 64.8356 113.645 61.3769 111.248C57.9644 108.896 56.0276 105.527 55.5664 101.139H65.1123C65.7118 102.813 66.8647 104.125 68.571 105.074C70.2772 106.069 72.4216 106.567 75.0041 106.567C77.5865 106.567 79.7309 105.73 81.4372 104.057C83.1896 102.383 84.0658 99.873 84.0658 96.5261V89.9453C81.1605 94.5134 77.1254 96.7974 71.9605 96.7974C66.7955 96.7974 62.4837 94.9883 59.0251 91.37ZM81.0221 85.6033C83.0512 83.6132 84.0658 80.8995 84.0658 77.4621C84.0658 74.0247 83.0512 71.3336 81.0221 69.3888C78.9931 67.3987 76.6181 66.4037 73.8973 66.4037C71.1765 66.4037 68.8015 67.3761 66.7725 69.3209C64.7895 71.2658 63.798 73.9569 63.798 77.3943C63.798 80.8317 64.8126 83.5454 66.8416 85.5355C68.8707 87.5255 71.2226 88.5206 73.8973 88.5206C76.6181 88.5206 78.9931 87.5482 81.0221 85.6033Z" fill="black"/>
<path d="M79.777 43.3345C79.777 44.9628 79.2006 46.3422 78.0477 47.473C76.8948 48.6037 75.4883 49.169 73.8281 49.169C72.2141 49.169 70.8306 48.6037 69.6777 47.473C68.5248 46.3422 67.9484 44.9628 67.9484 43.3345C67.9484 41.7063 68.5248 40.3268 69.6777 39.1961C70.8306 38.0654 72.2141 37.5 73.8281 37.5C75.4883 37.5 76.8948 38.0654 78.0477 39.1961C79.2006 40.3268 79.777 41.7063 79.777 43.3345Z" fill="black"/>
</svg>
